<svg width="17" height="17" viewBox="0 0 17 17" fill="none" xmlns="http://www.w3.org/2000/svg">
<g clip-path="url(#clip0_598_1151)">
<path d="M7.81629 1.43553C8.11897 0.521232 9.41228 0.521232 9.71496 1.43553L10.8948 4.99961C11.0279 5.40149 11.3995 5.67605 11.8228 5.68511L15.5104 5.76401C16.446 5.78403 16.844 6.96333 16.1118 7.54616L13.0931 9.94919C12.7764 10.2013 12.643 10.6195 12.755 11.0084L13.8342 14.7538C14.0981 15.6696 13.0528 16.4004 12.2833 15.8381L9.35558 13.6989C9.00418 13.4422 8.52707 13.4422 8.17567 13.6989L5.24793 15.8381C4.4784 16.4004 3.4332 15.6696 3.69706 14.7538L4.77622 11.0084C4.88829 10.6195 4.75482 10.2013 4.43812 9.94919L1.41944 7.54616C0.687298 6.96333 1.08527 5.78403 2.02086 5.76401L5.70847 5.68511C6.1317 5.67605 6.50338 5.40148 6.63642 4.99961L7.81629 1.43553Z" fill="#B5B7C4"/>
</g>
<defs>
<clipPath id="clip0_598_1151">
<rect width="16" height="16" fill="white" transform="translate(0.765625 0.567871)"/>
</clipPath>
</defs>
</svg>
