<svg width="17" height="17" viewBox="0 0 17 17" fill="none" xmlns="http://www.w3.org/2000/svg">
<g clip-path="url(#clip0_608_1092)">
<path d="M8.03162 1.55174C8.3343 0.637442 9.62761 0.637443 9.93029 1.55174L11.1102 5.11582C11.2432 5.5177 11.6149 5.79226 12.0381 5.80132L15.7257 5.88022C16.6613 5.90024 17.0593 7.07954 16.3271 7.66237L13.3085 10.0654C12.9918 10.3175 12.8583 10.7357 12.9704 11.1246L14.0495 14.87C14.3134 15.7858 13.2682 16.5166 12.4987 15.9543L9.57091 13.8151C9.21951 13.5584 8.7424 13.5584 8.391 13.8151L5.46326 15.9543C4.69373 16.5166 3.64853 15.7858 3.9124 14.87L4.99155 11.1246C5.10363 10.7357 4.97015 10.3175 4.65346 10.0654L1.63478 7.66237C0.90263 7.07954 1.3006 5.90024 2.23619 5.88022L5.92381 5.80132C6.34703 5.79226 6.71871 5.5177 6.85175 5.11582L8.03162 1.55174Z" fill="#FFB800"/>
</g>
<defs>
<clipPath id="clip0_608_1092">
<rect width="16" height="16" fill="white" transform="translate(0.980957 0.684082)"/>
</clipPath>
</defs>
</svg>
